<?xml version="1.0" encoding="utf-8"?>
<!-- Generator: Adobe Illustrator 28.1.0, SVG Export Plug-In . SVG Version: 6.00 Build 0)  -->
<svg version="1.1" id="Layer_1" xmlns="http://www.w3.org/2000/svg" xmlns:xlink="http://www.w3.org/1999/xlink" x="0px" y="0px"
	 viewBox="0 0 584 480" style="enable-background:new 0 0 584 480;" xml:space="preserve">
<style type="text/css">
	.st0{fill:#009999;}
	.st1{font-family:'Galvji-Bold';}
	.st2{font-size:64.7458px;}
	.st3{font-family:'Galvji';}
	.st4{font-size:32.3729px;}
	.st5{letter-spacing:-1;}
	.st6{letter-spacing:-2;}
	.st7{letter-spacing:-5;}
</style>
<text transform="matrix(1 0 0 1 177.2354 54.2378)" class="st0 st1 st2">Pricing</text>
<text transform="matrix(1 0 0 1 129.4463 367.0674)"><tspan x="0" y="0" class="st3 st4">Initial Consult: $300</tspan><tspan x="0.47" y="51.96" class="st3 st4 st5">Fol</tspan><tspan x="44.2" y="51.96" class="st3 st4">l</tspan><tspan x="53.41" y="51.96" class="st3 st4">o</tspan><tspan x="72.63" y="51.96" class="st3 st4">w</tspan><tspan x="98.37" y="51.96" class="st3 st4 st5"> </tspan><tspan x="105.07" y="51.96" class="st3 st4 st5">U</tspan><tspan x="126.86" y="51.96" class="st3 st4">p V</tspan><tspan x="174.86" y="51.96" class="st3 st4 st5">i</tspan><tspan x="182.86" y="51.96" class="st3 st4 st5">s</tspan><tspan x="199.27" y="51.96" class="st3 st4">i</tspan><tspan x="208.57" y="51.96" class="st3 st4 st5">t</tspan><tspan x="219.59" y="51.96" class="st3 st4 st6">s:</tspan><tspan x="242.97" y="51.96" class="st3 st4 st5"> </tspan><tspan x="249.67" y="51.96" class="st3 st4">$</tspan><tspan x="269.09" y="51.96" class="st3 st4 st5">1</tspan><tspan x="283.65" y="51.96" class="st3 st4">2</tspan><tspan x="302.54" y="51.96" class="st3 st4">5</tspan><tspan x="28.49" y="103.91" class="st3 st4">Virtual </tspan><tspan x="143.16" y="103.91" class="st3 st4">V</tspan><tspan x="163.86" y="103.91" class="st3 st4">isit: $60</tspan></text>
<g>
	<text transform="matrix(1 0 0 1 -0.1553 301.1172)" class="st0 st1 st2">Bundling Options:</text>
</g>
<g>
	<text transform="matrix(1 0 0 1 2.9199 119.5039)"><tspan x="0" y="0" class="st3 st4">3 Visit Bundle </tspan><tspan x="227.92" y="0" class="st3 st4">fo</tspan><tspan x="260.09" y="0" class="st3 st4">r $35</tspan><tspan x="341.25" y="0" class="st3 st4 st7">0</tspan><tspan x="356.71" y="0" class="st3 st4 st5"> </tspan><tspan x="363.41" y="0" class="st3 st4">(</tspan><tspan x="374.49" y="0" class="st3 st4">$2</tspan><tspan x="412.15" y="0" class="st3 st4">5</tspan><tspan x="432.51" y="0" class="st3 st4 st5"> </tspan><tspan x="439.21" y="0" class="st3 st4">savings)</tspan><tspan x="0" y="51.96" class="st3 st4">4 Visi</tspan><tspan x="87.33" y="51.96" class="st3 st4 st5">t </tspan><tspan x="105.7" y="51.96" class="st3 st4">Bundl</tspan><tspan x="195.51" y="51.96" class="st3 st4">e</tspan><tspan x="214.62" y="51.96" class="st3 st4 st5"> </tspan><tspan x="221.32" y="51.96" class="st3 st4">fo</tspan><tspan x="253.49" y="51.96" class="st3 st4 st5">r</tspan><tspan x="265.71" y="51.96" class="st3 st4"> </tspan><tspan x="273.06" y="51.96" class="st3 st4">$400</tspan><tspan x="355.45" y="51.96" class="st3 st4 st7"> </tspan><tspan x="357.62" y="51.96" class="st3 st4">($</tspan><tspan x="386.82" y="51.96" class="st3 st4 st5">10</tspan><tspan x="420.08" y="51.96" class="st3 st4 st5">0 </tspan><tspan x="446.78" y="51.96" class="st3 st4">savi</tspan><tspan x="508.52" y="51.96" class="st3 st4 st5">n</tspan><tspan x="527.3" y="51.96" class="st3 st4">g</tspan><tspan x="546.62" y="51.96" class="st3 st4 st5">s</tspan><tspan x="563.03" y="51.96" class="st3 st4">)</tspan></text>
</g>
</svg>
