<?xml version="1.0" encoding="utf-8"?>
<!-- Generator: Adobe Illustrator 28.1.0, SVG Export Plug-In . SVG Version: 6.00 Build 0)  -->
<svg version="1.1" id="Layer_1" xmlns="http://www.w3.org/2000/svg" xmlns:xlink="http://www.w3.org/1999/xlink" x="0px" y="0px"
	 viewBox="0 0 1280 480" style="enable-background:new 0 0 1280 480;" xml:space="preserve">
<style type="text/css">
	.st0{fill:#FFFFFF;}
	.st1{font-family:'Galvji-Bold';}
	.st2{font-size:83.532px;}
</style>
<g>
	<rect x="0.5" y="0.5" class="st0" width="1279" height="479"/>
	<path d="M1279,1v478H1V1H1279 M1280,0H0v480h1280V0L1280,0z"/>
</g>
<text transform="matrix(1 0 0 1 626.6462 -191.4808)"><tspan x="0" y="0" style="fill:#009999; font-family:'HelveticaNeue-CondensedBold'; font-size:36px;">Free Tummy Time Workshop!</tspan><tspan x="120.28" y="32" style="fill:#606060; font-family:'HelveticaNeue'; font-size:22.0936px;">Brought to you by</tspan><tspan x="40.06" y="64" style="fill:#009999; font-family:'HelveticaNeue-CondensedBold'; font-size:26.5123px;">Whole Practice Feeding Therapy</tspan></text>
<text transform="matrix(1 0 0 1 19.5547 77.751)" class="st1 st2">Pricing</text>
<text transform="matrix(1 0 0 1 1433.6084 -142.0405)"><tspan x="0" y="0" class="st1" style="font-size:12px;">Pricing</tspan><tspan x="0" y="28.8" class="st1" style="font-size:12px;">Initial Consult: $300</tspan><tspan x="0" y="57.6" class="st1" style="font-size:12px;">Follow Up Visits: $125</tspan><tspan x="0" y="86.4" class="st1" style="font-size:12px;">Virtual Visit: $75</tspan><tspan x="0" y="115.2" class="st1" style="font-size:12px;">Bundling Options:</tspan><tspan x="0" y="144" class="st1" style="font-size:12px;">3 Visit Bundle for $350 ($25 savings)</tspan><tspan x="0" y="172.8" class="st1" style="font-size:12px;">4 Visit Bundle for $400 ($100 savings)</tspan><tspan x="0" y="201.6" class="st1" style="font-size:12px;">Virtual Coaching Bundle for $250 (includes initial visit and three follow up visits</tspan></text>
</svg>
